<?xml version="1.0" encoding="UTF-8"?>
<svg version="1.1" xmlns="http://www.w3.org/2000/svg" width="150" height="150">
<path d="M0 0 C49.5 0 99 0 150 0 C150 49.5 150 99 150 150 C100.5 150 51 150 0 150 C0 100.5 0 51 0 0 Z " fill="#010101" transform="translate(0,0)"/>
<path d="M0 0 C1.53527344 -0.01836914 1.53527344 -0.01836914 3.1015625 -0.03710938 C4.07867187 -0.03904297 5.05578125 -0.04097656 6.0625 -0.04296875 C7.41021484 -0.04913208 7.41021484 -0.04913208 8.78515625 -0.05541992 C11 0.1875 11 0.1875 13 2.1875 C13.82833738 4.60048282 14.56308409 6.98402953 15.25 9.4375 C15.46180908 10.17532715 15.67361816 10.9131543 15.8918457 11.67333984 C18.46626793 20.70198673 20.91045751 29.76786964 23.35351562 38.83276367 C23.93407205 40.94736589 24.54518448 43.04989666 25.16796875 45.15234375 C25.94846312 47.99949928 26.17763687 50.25649158 26 53.1875 C29.53719962 52.00843346 29.92947089 51.20820225 31.9074707 48.16186523 C32.46847977 47.30684921 33.02948883 46.45183319 33.60749817 45.57090759 C34.20753159 44.63871902 34.807565 43.70653046 35.42578125 42.74609375 C36.05099167 41.78985611 36.67620209 40.83361847 37.32035828 39.84840393 C39.32548415 36.77890469 41.31945998 33.70235756 43.3125 30.625 C45.29667428 27.57388909 47.28318817 24.5243371 49.27250671 21.47657776 C50.51031178 19.57885081 51.74487721 17.67900549 52.97566223 15.77671814 C54.63024288 13.23282832 56.30863092 10.70704307 58 8.1875 C58.51591705 7.39784851 59.03183411 6.60819702 59.56338501 5.7946167 C63.24847691 0.44336876 63.24847691 0.44336876 66.76074219 -0.75244141 C67.68016602 -0.72327637 68.59958984 -0.69411133 69.546875 -0.6640625 C71.06087891 -0.63892578 71.06087891 -0.63892578 72.60546875 -0.61328125 C73.64316406 -0.55527344 74.68085937 -0.49726562 75.75 -0.4375 C77.32974609 -0.40849609 77.32974609 -0.40849609 78.94140625 -0.37890625 C86.66153067 -0.15096933 86.66153067 -0.15096933 89 2.1875 C88.78535972 4.58877596 88.44690562 6.8263515 88 9.1875 C87.73732629 10.743369 87.47593231 12.2994544 87.21557617 13.85571289 C86.90917246 15.62405721 86.60157143 17.39219436 86.29296875 19.16015625 C86.12630203 20.11909286 85.95963531 21.07802948 85.78791809 22.06602478 C85.43456299 24.09757235 85.08068534 26.12902908 84.72631836 28.16040039 C84.19830027 31.18807095 83.67225319 34.21607876 83.14648438 37.24414062 C82.45475573 41.22681206 81.75398458 45.20776121 81.04833984 49.18798828 C80.32688931 53.26991242 79.64519057 57.3561796 78.98681641 61.44873047 C78.65403741 63.44369592 78.3211948 65.43865075 77.98828125 67.43359375 C77.84722458 68.35680923 77.70616791 69.28002472 77.56083679 70.23121643 C76.91250415 74.03349339 76.41881054 76.60462503 74.14404297 79.77050781 C71.74234511 81.35778342 70.55833969 81.67049074 67.70703125 81.61328125 C66.91232422 81.60490234 66.11761719 81.59652344 65.29882812 81.58789062 C64.47833984 81.55888672 63.65785156 81.52988281 62.8125 81.5 C61.98041016 81.49033203 61.14832031 81.48066406 60.29101562 81.47070312 C54.16843594 81.35593594 54.16843594 81.35593594 53 80.1875 C52.52795585 73.46087084 53.58284962 67.3308395 54.93261719 60.77319336 C55.60813469 57.46821193 56 54.58252922 56 51.1875 C55.54149658 51.88311035 55.08299316 52.5787207 54.6105957 53.29541016 C52.88950164 55.90278622 51.16517913 58.50798983 49.4387207 61.11181641 C48.33233335 62.78255005 47.22960887 64.45570746 46.12695312 66.12890625 C44.72286979 68.24464826 43.30312124 70.35009394 41.86645508 72.44384766 C40.78976022 74.02656797 39.741896 75.6316021 38.7800293 77.28662109 C37.71875 78.9375 37.71875 78.9375 35 81.1875 C31.03043345 81.88673061 27.20146456 81.75375793 23.1875 81.5625 C21.57584961 81.52189453 21.57584961 81.52189453 19.93164062 81.48046875 C17.28570432 81.40991045 14.6438876 81.31138756 12 81.1875 C6.74936442 71.19139204 3.55442915 60.34690926 2 49.1875 C1.34 49.1875 0.68 49.1875 0 49.1875 C-0.03738281 49.9403125 -0.07476562 50.693125 -0.11328125 51.46875 C-0.51682086 57.98868401 -1.23629152 64.38456784 -2.375 70.8125 C-2.48884033 71.49892578 -2.60268066 72.18535156 -2.7199707 72.89257812 C-3.41310966 76.60288301 -3.97093895 78.87525936 -7 81.1875 C-9.06884766 81.54394531 -9.06884766 81.54394531 -11.4140625 81.515625 C-12.25710937 81.51046875 -13.10015625 81.5053125 -13.96875 81.5 C-14.8453125 81.479375 -15.721875 81.45875 -16.625 81.4375 C-17.50929688 81.43234375 -18.39359375 81.4271875 -19.3046875 81.421875 C-25.84588509 81.34161491 -25.84588509 81.34161491 -27 80.1875 C-27.31453657 73.34879702 -26.46185737 67.1360847 -25.13671875 60.44140625 C-24.94406937 59.43142075 -24.75141998 58.42143524 -24.55293274 57.38084412 C-23.93887716 54.1690146 -23.31372179 50.95947739 -22.6875 47.75 C-21.87557047 43.54360648 -21.06853993 39.33628201 -20.26171875 35.12890625 C-20.06488495 34.11059723 -19.86805115 33.09228821 -19.66525269 32.04312134 C-18.3031104 24.94644791 -17.06375396 17.83729619 -16.00382996 10.68885803 C-15.46327937 7.2164468 -14.95513495 4.15342185 -13 1.1875 C-9.11308052 -0.75595974 -4.27485419 0.00269197 0 0 Z " fill="#FBFBFB" transform="translate(44,33.8125)"/>
</svg>
